<svg xmlns="http://www.w3.org/2000/svg" version="1.1" xmlns:xlink="http://www.w3.org/1999/xlink" xmlns:svgjs="http://svgjs.dev/svgjs" width="1000" height="1000" viewBox="0 0 1000 1000"><rect width="1000" height="1000" fill="#ffffff"></rect><g transform="matrix(0.7,0,0,0.7,149.57575781421076,443.7735225509625)"><svg viewBox="0 0 396 64" data-background-color="#0b022d" preserveAspectRatio="xMidYMid meet" height="161" width="1000" xmlns="http://www.w3.org/2000/svg" xmlns:xlink="http://www.w3.org/1999/xlink"><g id="tight-bounds" transform="matrix(1,0,0,1,0.24000013489637695,-0.07014482388700571)"><svg viewBox="0 0 395.52 64.14028964777401" height="64.14028964777401" width="395.52"><g><svg viewBox="0 0 395.52 64.14028964777401" height="64.14028964777401" width="395.52"><g><svg viewBox="0 0 395.52 64.14028964777401" height="64.14028964777401" width="395.52"><g id="textblocktransform"><svg viewBox="0 0 395.52 64.14028964777401" height="64.14028964777401" width="395.52" id="textblock"><g><svg viewBox="0 0 395.52 64.14028964777401" height="64.14028964777401" width="395.52"><g transform="matrix(1,0,0,1,0,0)"><svg width="395.52" viewBox="7.800000190734863 -41.54999923706055 279.6200256347656 45.349998474121094" height="64.14028964777401" data-palette-color="#f7fff7"><path d="M8.4-2.6L8.4-2.6Q9.15-4.25 10.2-6.85 11.25-9.45 12.4-12.48 13.55-15.5 14.75-18.68 15.95-21.85 17-24.7 18.05-27.55 18.82-29.8 19.6-32.05 19.95-33.25L19.95-33.25Q16.8-31.95 14.55-29.3 12.3-26.65 11.15-22.65L11.15-22.65Q10-23.05 9.05-24.08 8.1-25.1 7.8-26.65L7.8-26.65Q8.3-28.95 9.68-30.85 11.05-32.75 13.15-34.1 15.25-35.45 18-36.18 20.75-36.9 23.9-36.9L23.9-36.9Q27.9-36.9 31.25-35.73 34.6-34.55 37-32.45 39.4-30.35 40.75-27.4 42.1-24.45 42.1-20.85L42.1-20.85Q42.1-15.95 40.3-11.5 38.5-7.05 35.43-3.65 32.35-0.25 28.3 1.78 24.25 3.8 19.8 3.8L19.8 3.8Q15.7 3.8 12.78 2.18 9.85 0.55 8.4-2.6ZM26.05-34.4L26.05-34.4Q23.55-34.4 21.3-33.7L21.3-33.7Q23.5-32.9 24.95-32.02 26.4-31.15 26.95-30.65L26.95-30.65Q26.55-30.1 25.78-28.7 25-27.3 23.98-25.3 22.95-23.3 21.8-20.93 20.65-18.55 19.55-16.05L19.55-16.05Q16.7-9.7 15.43-6.05 14.15-2.4 14.15-1L14.15-1Q14.85-0.75 15.85-0.65 16.85-0.55 18-0.55L18-0.55Q22.05-0.55 25.68-2.43 29.3-4.3 32.02-7.45 34.75-10.6 36.33-14.78 37.9-18.95 37.9-23.55L37.9-23.55Q37.9-28.7 34.7-31.55 31.5-34.4 26.05-34.4ZM43.3-0.85L43.3-0.85Q43.3-2.6 43.65-4.98 44-7.35 44.67-10.05 45.35-12.75 46.27-15.7 47.2-18.65 48.35-21.6L48.35-21.6Q49.35-24.25 50.67-26.95 52-29.65 53.55-32.25 55.1-34.85 56.77-37.2 58.45-39.55 60.15-41.5L60.15-41.5Q60.95-41.5 61.87-41.3 62.8-41.1 63.67-40.78 64.55-40.45 65.27-40 66-39.55 66.45-39.1L66.45-39.1Q62.7-35.25 59.7-31.33 56.7-27.4 54.95-23.95L54.95-23.95Q54-22.05 53.22-20.4 52.45-18.75 51.8-17.13 51.15-15.5 50.62-13.88 50.1-12.25 49.65-10.45L49.65-10.45Q59.25-22.7 63.9-22.7L63.9-22.7Q65.2-22.7 66.7-21.85 68.2-21 69.35-19.55L69.35-19.55Q67.8-17.85 66.15-15.45 64.5-13.05 63.12-10.63 61.75-8.2 60.87-6.13 60-4.05 60-3.05L60-3.05Q60-2.55 60.15-2.38 60.3-2.2 60.8-2.2L60.8-2.2Q61.55-2.2 62-2.4 62.45-2.6 62.55-2.6L62.55-2.6Q62.8-2.2 62.85-2.05 62.9-1.9 62.9-1.8L62.9-1.8Q62.9-1.6 62.3-1.23 61.7-0.85 60.87-0.48 60.05-0.1 59.25 0.2 58.45 0.5 58.05 0.5L58.05 0.5Q57.55 0.5 57.05 0.23 56.55-0.05 56.17-0.5 55.8-0.95 55.57-1.5 55.35-2.05 55.35-2.65L55.35-2.65Q55.35-3.4 55.77-4.88 56.2-6.35 56.95-8.33 57.7-10.3 58.75-12.65 59.8-15 61-17.45L61-17.45Q61-17.65 60.8-17.65L60.8-17.65Q60.65-17.65 60.02-17.25 59.4-16.85 58.85-16.45L58.85-16.45Q57.05-15.1 55.22-13.13 53.4-11.15 51.67-8.8 49.95-6.45 48.42-3.83 46.9-1.2 45.8 1.45L45.8 1.45Q45.65 1.8 45.35 2.1 45.05 2.4 44.85 2.4L44.85 2.4Q44.7 2.4 44.42 2.05 44.15 1.7 43.92 1.18 43.7 0.65 43.5 0.1 43.3-0.45 43.3-0.85ZM68-1L68-1Q68.25-2.45 68.87-4.83 69.5-7.2 70.35-9.88 71.2-12.55 72.15-15.25 73.1-17.95 74-20.1L74-20.1Q74.65-21.65 75.15-22.53 75.65-23.4 76.25-24L76.25-24Q76.95-23.9 77.7-23.65 78.45-23.4 79.15-23.05 79.85-22.7 80.4-22.33 80.95-21.95 81.25-21.6L81.25-21.6Q79.9-20 78.87-17.95 77.85-15.9 76.8-12.7L76.8-12.7Q79.5-15.1 81.57-17.3 83.65-19.5 85.45-22.2L85.45-22.2Q85.75-22.45 86.5-22.45L86.5-22.45Q87.2-22.45 87.85-22.23 88.5-22 88.75-21.6L88.75-21.6Q87.85-19.2 87.85-16.85L87.85-16.85Q87.85-14.65 88.5-13.55L88.5-13.55Q88.45-13.25 87.82-12.4 87.2-11.55 86.45-10.8L86.45-10.8Q85.1-11.5 84.05-12.73 83-13.95 82.5-15.4L82.5-15.4Q80.15-13.75 78.5-12.18 76.85-10.6 75.67-8.68 74.5-6.75 73.67-4.25 72.85-1.75 72.1 1.7L72.1 1.7Q71.65 1.65 71.02 1.38 70.4 1.1 69.77 0.7 69.15 0.3 68.65-0.15 68.15-0.6 68-1ZM102.94-1.1L102.94-1.1Q101.99-1.9 101.67-3.1 101.34-4.3 101.34-5.15L101.34-5.15Q101.34-6.2 101.59-6.95L101.59-6.95Q101.39-6.95 100.69-6.15 99.99-5.35 99.17-4.25 98.34-3.15 97.54-2.1 96.74-1.05 96.34-0.55L96.34-0.55Q95.69 0.15 95.12 0.55 94.54 0.95 94.19 1L94.19 1Q93.39 0.95 92.52 0.68 91.64 0.4 90.87-0.1 90.09-0.6 89.52-1.3 88.94-2 88.74-2.9L88.74-2.9Q88.74-4.3 88.82-5.2 88.89-6.1 89.14-7.15L89.14-7.15Q89.59-9.05 90.47-11.45 91.34-13.85 92.49-16.18 93.64-18.5 95.07-20.53 96.49-22.55 98.09-23.7L98.09-23.7Q98.54-23.7 99.14-23.63 99.74-23.55 100.37-23.35 100.99-23.15 101.57-22.88 102.14-22.6 102.54-22.15L102.54-22.15Q102.09-21.65 100.27-18.8 98.44-15.95 96.19-10.6L96.19-10.6Q95.94-10.05 95.59-9 95.24-7.95 94.89-6.8 94.54-5.65 94.32-4.55 94.09-3.45 94.09-2.8L94.09-2.8Q94.09-2.4 94.22-2.2 94.34-2 94.44-1.9L94.44-1.9Q95.19-2.2 96.34-3.55 97.49-4.9 99.54-7.7L99.54-7.7Q100.04-8.4 100.72-9.3 101.39-10.2 102.09-11.23 102.79-12.25 103.42-13.35 104.04-14.45 104.44-15.55L104.44-15.55Q104.64-16.15 104.97-16.98 105.29-17.8 105.77-18.7 106.24-19.6 106.87-20.53 107.49-21.45 108.34-22.25L108.34-22.25Q108.99-22.25 109.74-22.1 110.49-21.95 111.17-21.73 111.84-21.5 112.34-21.23 112.84-20.95 113.09-20.65L113.09-20.65Q112.19-18.45 111.09-16.3 109.99-14.15 109.04-12.08 108.09-10 107.44-7.95 106.79-5.9 106.79-3.95L106.79-3.95Q106.79-2.9 106.97-2.13 107.14-1.35 107.34-0.83 107.54-0.3 107.72 0.05 107.89 0.4 107.89 0.65L107.89 0.65Q107.89 0.7 107.79 0.8L107.79 0.8Q107.74 0.85 107.69 0.85L107.69 0.85Q107.34 0.85 106.79 0.7 106.24 0.55 105.57 0.28 104.89 0 104.22-0.35 103.54-0.7 102.94-1.1ZM116.54-17.7L116.54-17.7Q116.54-18.6 116.67-19.4 116.79-20.2 117.19-20.78 117.59-21.35 118.29-21.68 118.99-22 120.14-22L120.14-22Q120.84-22 121.72-21.85 122.59-21.7 122.99-21.3L122.99-21.3Q122.79-20.45 122.67-19.8 122.54-19.15 122.47-18.38 122.39-17.6 122.34-16.53 122.29-15.45 122.24-13.75L122.24-13.75Q122.14-10.35 121.92-7.68 121.69-5 120.89-2.35L120.89-2.35Q120.89-2.15 121.04-2.15L121.04-2.15Q121.79-2.7 122.74-3.75 123.69-4.8 124.74-6.13 125.79-7.45 126.84-8.95 127.89-10.45 128.79-11.9L128.79-11.9Q129.99-14 131.44-17.15 132.89-20.3 133.84-23.9L133.84-23.9Q134.14-23.9 134.62-23.78 135.09-23.65 135.57-23.48 136.04-23.3 136.42-23.1 136.79-22.9 136.94-22.75L136.94-22.75Q136.84-20.6 135.92-18.35 134.99-16.1 133.69-14 132.39-11.9 130.94-10.05 129.49-8.2 128.29-6.85L128.29-6.85Q125.89-4.05 123.47-1.85 121.04 0.35 117.69 2.4L117.69 2.4Q116.39 1.9 115.64 1.07 114.89 0.25 114.89-0.65L114.89-0.65Q114.89-1.25 115.17-2.02 115.44-2.8 115.79-4.03 116.14-5.25 116.42-7.1 116.69-8.95 116.69-11.8L116.69-11.8Q116.69-13.45 116.62-15.13 116.54-16.8 116.54-17.7ZM151.64-2.6L151.64-2.6Q152.39-4.25 153.44-6.85 154.49-9.45 155.64-12.48 156.79-15.5 157.99-18.68 159.19-21.85 160.24-24.7 161.29-27.55 162.06-29.8 162.84-32.05 163.19-33.25L163.19-33.25Q160.04-31.95 157.79-29.3 155.54-26.65 154.39-22.65L154.39-22.65Q153.24-23.05 152.29-24.08 151.34-25.1 151.04-26.65L151.04-26.65Q151.54-28.95 152.91-30.85 154.29-32.75 156.39-34.1 158.49-35.45 161.24-36.18 163.99-36.9 167.14-36.9L167.14-36.9Q171.14-36.9 174.49-35.73 177.84-34.55 180.24-32.45 182.64-30.35 183.99-27.4 185.34-24.45 185.34-20.85L185.34-20.85Q185.34-15.95 183.54-11.5 181.74-7.05 178.66-3.65 175.59-0.25 171.54 1.78 167.49 3.8 163.04 3.8L163.04 3.8Q158.94 3.8 156.01 2.18 153.09 0.55 151.64-2.6ZM169.29-34.4L169.29-34.4Q166.79-34.4 164.54-33.7L164.54-33.7Q166.74-32.9 168.19-32.02 169.64-31.15 170.19-30.65L170.19-30.65Q169.79-30.1 169.01-28.7 168.24-27.3 167.21-25.3 166.19-23.3 165.04-20.93 163.89-18.55 162.79-16.05L162.79-16.05Q159.94-9.7 158.66-6.05 157.39-2.4 157.39-1L157.39-1Q158.09-0.75 159.09-0.65 160.09-0.55 161.24-0.55L161.24-0.55Q165.29-0.55 168.91-2.43 172.54-4.3 175.26-7.45 177.99-10.6 179.56-14.78 181.14-18.95 181.14-23.55L181.14-23.55Q181.14-28.7 177.94-31.55 174.74-34.4 169.29-34.4ZM204.88-20.7L204.88-20.7Q204.68-17.6 203.78-15.38 202.88-13.15 201.21-11.48 199.53-9.8 197.13-8.45 194.73-7.1 191.53-5.85L191.53-5.85Q191.53-5.55 191.51-5.23 191.48-4.9 191.48-4.55L191.48-4.55Q191.48-3.9 191.58-3.2 191.68-2.5 191.93-1.9 192.18-1.3 192.63-0.93 193.08-0.55 193.78-0.55L193.78-0.55Q195.13-0.55 196.43-1.15 197.73-1.75 198.91-2.63 200.08-3.5 201.11-4.53 202.13-5.55 202.93-6.4L202.93-6.4Q203.43-5.95 203.78-5.55L203.78-5.55Q201.53-2.55 198.86-0.58 196.18 1.4 193.78 1.95L193.78 1.95Q190.33 1.55 188.41-0.58 186.48-2.7 186.48-5.7L186.48-5.7Q186.48-7.75 187.06-9.88 187.63-12 188.66-13.98 189.68-15.95 191.06-17.7 192.43-19.45 194.01-20.75 195.58-22.05 197.26-22.8 198.93-23.55 200.58-23.55L200.58-23.55Q202.88-23.25 204.88-20.7ZM201.43-19.05L201.43-19.05Q200.08-18.85 198.63-17.95 197.18-17.05 195.91-15.55 194.63-14.05 193.58-12.05 192.53-10.05 191.93-7.75L191.93-7.75Q195.93-9.75 198.58-12.68 201.23-15.6 201.43-19.05ZM218.08-23.35L218.08-23.35Q219.08-23.35 220.38-22.75 221.68-22.15 222.68-21.2L222.68-21.2Q222.43-23.2 222.06-24.98 221.68-26.75 220.96-28.65 220.23-30.55 219.03-32.8 217.83-35.05 216.03-37.95L216.03-37.95Q216.18-38.4 216.71-39 217.23-39.6 217.91-40.13 218.58-40.65 219.31-41.05 220.03-41.45 220.68-41.55L220.68-41.55Q222.08-40 223.33-37.68 224.58-35.35 225.53-32.68 226.48-30 227.01-27.15 227.53-24.3 227.53-21.7L227.53-21.7Q227.53-19.1 226.96-16.35 226.38-13.6 225.36-10.98 224.33-8.35 222.98-6 221.63-3.65 220.06-1.8 218.48 0.05 216.78 1.23 215.08 2.4 213.38 2.7L213.38 2.7Q209.93 2.3 208.11 0.48 206.28-1.35 206.28-4.55L206.28-4.55Q206.28-6.25 206.81-8.25 207.33-10.25 208.21-12.23 209.08-14.2 210.26-16.07 211.43-17.95 212.76-19.45 214.08-20.95 215.43-22 216.78-23.05 218.08-23.35ZM212.98 0.7L212.98 0.7Q214.73 0.1 216.48-1.95 218.23-4 219.63-6.78 221.03-9.55 221.91-12.73 222.78-15.9 222.78-18.85L222.78-18.85Q222.78-19.7 222.78-19.9 222.78-20.1 222.73-20.3L222.73-20.3Q221.53-19.8 220.18-18.6 218.83-17.4 217.48-15.83 216.13-14.25 214.93-12.4 213.73-10.55 212.78-8.7 211.83-6.85 211.28-5.15 210.73-3.45 210.73-2.15L210.73-2.15Q210.73 0.35 212.98 0.7ZM228.78-0.85L228.78-0.85Q228.78-2.6 229.13-4.98 229.48-7.35 230.15-10.05 230.83-12.75 231.75-15.7 232.68-18.65 233.83-21.6L233.83-21.6Q234.83-24.25 236.15-26.95 237.48-29.65 239.03-32.25 240.58-34.85 242.25-37.2 243.93-39.55 245.63-41.5L245.63-41.5Q246.43-41.5 247.35-41.3 248.28-41.1 249.15-40.78 250.03-40.45 250.75-40 251.48-39.55 251.93-39.1L251.93-39.1Q248.18-35.25 245.18-31.33 242.18-27.4 240.43-23.95L240.43-23.95Q239.48-22.05 238.7-20.4 237.93-18.75 237.28-17.13 236.63-15.5 236.1-13.88 235.58-12.25 235.13-10.45L235.13-10.45Q244.73-22.7 249.38-22.7L249.38-22.7Q250.68-22.7 252.18-21.85 253.68-21 254.83-19.55L254.83-19.55Q253.28-17.85 251.63-15.45 249.98-13.05 248.6-10.63 247.23-8.2 246.35-6.13 245.48-4.05 245.48-3.05L245.48-3.05Q245.48-2.55 245.63-2.38 245.78-2.2 246.28-2.2L246.28-2.2Q247.03-2.2 247.48-2.4 247.93-2.6 248.03-2.6L248.03-2.6Q248.28-2.2 248.33-2.05 248.38-1.9 248.38-1.8L248.38-1.8Q248.38-1.6 247.78-1.23 247.18-0.85 246.35-0.48 245.53-0.1 244.73 0.2 243.93 0.5 243.53 0.5L243.53 0.5Q243.03 0.5 242.53 0.23 242.03-0.05 241.65-0.5 241.28-0.95 241.05-1.5 240.83-2.05 240.83-2.65L240.83-2.65Q240.83-3.4 241.25-4.88 241.68-6.35 242.43-8.33 243.18-10.3 244.23-12.65 245.28-15 246.48-17.45L246.48-17.45Q246.48-17.65 246.28-17.65L246.28-17.65Q246.13-17.65 245.5-17.25 244.88-16.85 244.33-16.45L244.33-16.45Q242.53-15.1 240.7-13.13 238.88-11.15 237.15-8.8 235.43-6.45 233.9-3.83 232.38-1.2 231.28 1.45L231.28 1.45Q231.13 1.8 230.83 2.1 230.53 2.4 230.33 2.4L230.33 2.4Q230.18 2.4 229.9 2.05 229.63 1.7 229.4 1.18 229.18 0.65 228.98 0.1 228.78-0.45 228.78-0.85ZM254.73-3.35L254.73-3.35Q254.73-3.8 254.8-4.48 254.88-5.15 255.08-6.28 255.28-7.4 255.6-9 255.93-10.6 256.43-12.85L256.43-12.85Q256.53-13.35 256.88-14.45 257.23-15.55 257.8-16.78 258.38-18 259.2-19.15 260.03-20.3 261.18-20.85L261.18-20.85Q262.03-20.65 263.43-19.83 264.83-19 265.83-17.55L265.83-17.55Q264.68-16.25 263.9-14.95 263.13-13.65 262.5-12.25 261.88-10.85 261.35-9.35 260.83-7.85 260.18-6.2L260.18-6.2Q259.63-4.8 259.18-3.33 258.73-1.85 258.68-0.75L258.68-0.75Q258.68 0.15 258.65 0.53 258.63 0.9 258.38 0.9L258.38 0.9Q258.18 0.9 257.58 0.65 256.98 0.4 256.35-0.13 255.73-0.65 255.23-1.45 254.73-2.25 254.73-3.35ZM264.28-25.05L264.28-25.05Q264.28-25.35 264.43-25.95L264.43-25.95Q264.18-26.2 264-26.7 263.83-27.2 263.83-27.6L263.83-27.6Q263.83-28.05 263.95-28.83 264.08-29.6 264.28-30.5 264.48-31.4 264.78-32.38 265.08-33.35 265.38-34.15L265.38-34.15Q265.98-34.15 266.85-33.83 267.73-33.5 268.63-32.98 269.53-32.45 270.28-31.83 271.03-31.2 271.43-30.65L271.43-30.65Q270.88-30.1 269.98-29.13 269.08-28.15 268.23-27.08 267.38-26 266.68-25.05 265.98-24.1 265.78-23.7L265.78-23.7Q265.18-23.8 264.73-24.23 264.28-24.65 264.28-25.05ZM283.72-20.2L283.72-20.2Q284.22-20.2 284.9-20.03 285.57-19.85 286.12-19.58 286.67-19.3 287.05-19 287.42-18.7 287.42-18.45L287.42-18.45Q286.42-16.35 285.57-14.23 284.72-12.1 284.12-10.15 283.52-8.2 283.2-6.5 282.87-4.8 282.87-3.55L282.87-3.55Q282.87-2.15 283.17-1.23 283.47-0.3 284.17 0.1L284.17 0.1Q283.57 0.5 282.62 0.75 281.67 1 280.92 1L280.92 1Q278.22 1 278.22-2.7L278.22-2.7Q278.22-5.55 280.12-10.5L280.12-10.5Q279.12-8.2 277.82-6.18 276.52-4.15 275.17-2.6 273.82-1.05 272.45-0.08 271.07 0.9 269.92 1.1L269.92 1.1Q268.07 1 266.92-0.68 265.77-2.35 265.77-4.95L265.77-4.95Q265.77-7.75 266.97-10.85 268.17-13.95 270.05-16.6 271.92-19.25 274.12-21.03 276.32-22.8 278.37-22.9L278.37-22.9Q278.87-22.75 279.5-22.3 280.12-21.85 280.7-21.25 281.27-20.65 281.67-20.03 282.07-19.4 282.12-18.95L282.12-18.95Q280.12-18.65 278-17 275.87-15.35 274.15-13.03 272.42-10.7 271.32-8.05 270.22-5.4 270.22-3.1L270.22-3.1Q270.22-2.15 270.92-1.9L270.92-1.9Q272.37-2.2 274.27-4.38 276.17-6.55 278.87-11.1L278.87-11.1Q279.37-12 280-13.1 280.62-14.2 281.27-15.4 281.92-16.6 282.55-17.82 283.17-19.05 283.72-20.2Z" opacity="1" transform="matrix(1,0,0,1,0,0)" fill="#000000" class="undefined-text-0" data-fill-palette-color="primary" id="text-0"></path></svg></g></svg></g></svg></g></svg></g></svg></g><defs></defs></svg><rect width="395.52" height="64.14028964777401" fill="none" stroke="none" visibility="hidden"></rect></g></svg></g></svg>