 <svg
          xmlns="http://www.w3.org/2000/svg"
          version="1.1"
          xmlns:xlink="http://www.w3.org/1999/xlink"
          xmlns:svgjs="http://svgjs.dev/svgjs"
          width="2000"
          height="1500"
          viewBox="0 0 2000 1500"
        >
          <rect width="2000" height="1500" fill="#191627"></rect>
          <g transform="matrix(0.75,0,0,0.75,249.090909090909,486.2397728924874)">
            <svg
              viewBox="0 0 396 139"
              data-background-color="#1b1b1b"
              preserveAspectRatio="xMidYMid meet"
              height="702"
              width="2000"
              xmlns="http://www.w3.org/2000/svg"
              xmlns:xlink="http://www.w3.org/1999/xlink"
            >
              <g
                id="tight-bounds"
                transform="matrix(1,0,0,1,0.2400000000000091,0.13470383275262066)"
              >
                <svg
                  viewBox="0 0 395.52 138.73059233449476"
                  height="138.73059233449476"
                  width="395.52"
                >
                  <g>
                    <svg
                      viewBox="0 0 395.52 138.73059233449476"
                      height="138.73059233449476"
                      width="395.52"
                    >
                      <g>
                        <svg
                          viewBox="0 0 395.52 138.73059233449476"
                          height="138.73059233449476"
                          width="395.52"
                        >
                          <g id="textblocktransform">
                            <svg
                              viewBox="0 0 395.52 138.73059233449476"
                              height="138.73059233449476"
                              width="395.52"
                              id="textblock"
                            >
                              <g>
                                <svg
                                  viewBox="0 0 395.52 138.73059233449476"
                                  height="138.73059233449476"
                                  width="395.52"
                                >
                                  <g transform="matrix(1,0,0,1,0,0)">
                                    <svg
                                      width="395.52"
                                      viewBox="7.8 -41.5 129.14 45.3"
                                      height="138.73059233449476"
                                      data-palette-color="#f8efd4"
                                    >
                                      <path
                                        d="M8.4-2.6L8.4-2.6Q9.15-4.25 10.2-6.85 11.25-9.45 12.4-12.48 13.55-15.5 14.75-18.68 15.95-21.85 17-24.7 18.05-27.55 18.82-29.8 19.6-32.05 19.95-33.25L19.95-33.25Q16.8-31.95 14.55-29.3 12.3-26.65 11.15-22.65L11.15-22.65Q10-23.05 9.05-24.08 8.1-25.1 7.8-26.65L7.8-26.65Q8.3-28.95 9.68-30.85 11.05-32.75 13.15-34.1 15.25-35.45 18-36.18 20.75-36.9 23.9-36.9L23.9-36.9Q27.9-36.9 31.25-35.73 34.6-34.55 37-32.45 39.4-30.35 40.75-27.4 42.1-24.45 42.1-20.85L42.1-20.85Q42.1-15.95 40.3-11.5 38.5-7.05 35.43-3.65 32.35-0.25 28.3 1.78 24.25 3.8 19.8 3.8L19.8 3.8Q15.7 3.8 12.78 2.18 9.85 0.55 8.4-2.6ZM26.05-34.4L26.05-34.4Q23.55-34.4 21.3-33.7L21.3-33.7Q23.5-32.9 24.95-32.02 26.4-31.15 26.95-30.65L26.95-30.65Q26.55-30.1 25.78-28.7 25-27.3 23.98-25.3 22.95-23.3 21.8-20.93 20.65-18.55 19.55-16.05L19.55-16.05Q16.7-9.7 15.43-6.05 14.15-2.4 14.15-1L14.15-1Q14.85-0.75 15.85-0.65 16.85-0.55 18-0.55L18-0.55Q22.05-0.55 25.68-2.43 29.3-4.3 32.02-7.45 34.75-10.6 36.33-14.78 37.9-18.95 37.9-23.55L37.9-23.55Q37.9-28.7 34.7-31.55 31.5-34.4 26.05-34.4ZM43.3-0.85L43.3-0.85Q43.3-2.6 43.65-4.98 44-7.35 44.67-10.05 45.35-12.75 46.27-15.7 47.2-18.65 48.35-21.6L48.35-21.6Q49.35-24.25 50.67-26.95 52-29.65 53.55-32.25 55.1-34.85 56.77-37.2 58.45-39.55 60.15-41.5L60.15-41.5Q60.95-41.5 61.87-41.3 62.8-41.1 63.67-40.78 64.55-40.45 65.27-40 66-39.55 66.45-39.1L66.45-39.1Q62.7-35.25 59.7-31.33 56.7-27.4 54.95-23.95L54.95-23.95Q54-22.05 53.22-20.4 52.45-18.75 51.8-17.13 51.15-15.5 50.62-13.88 50.1-12.25 49.65-10.45L49.65-10.45Q59.25-22.7 63.9-22.7L63.9-22.7Q65.2-22.7 66.7-21.85 68.2-21 69.35-19.55L69.35-19.55Q67.8-17.85 66.15-15.45 64.5-13.05 63.12-10.63 61.75-8.2 60.87-6.13 60-4.05 60-3.05L60-3.05Q60-2.55 60.15-2.38 60.3-2.2 60.8-2.2L60.8-2.2Q61.55-2.2 62-2.4 62.45-2.6 62.55-2.6L62.55-2.6Q62.8-2.2 62.85-2.05 62.9-1.9 62.9-1.8L62.9-1.8Q62.9-1.6 62.3-1.23 61.7-0.85 60.87-0.48 60.05-0.1 59.25 0.2 58.45 0.5 58.05 0.5L58.05 0.5Q57.55 0.5 57.05 0.23 56.55-0.05 56.17-0.5 55.8-0.95 55.57-1.5 55.35-2.05 55.35-2.65L55.35-2.65Q55.35-3.4 55.77-4.88 56.2-6.35 56.95-8.33 57.7-10.3 58.75-12.65 59.8-15 61-17.45L61-17.45Q61-17.65 60.8-17.65L60.8-17.65Q60.65-17.65 60.02-17.25 59.4-16.85 58.85-16.45L58.85-16.45Q57.05-15.1 55.22-13.13 53.4-11.15 51.67-8.8 49.95-6.45 48.42-3.83 46.9-1.2 45.8 1.45L45.8 1.45Q45.65 1.8 45.35 2.1 45.05 2.4 44.85 2.4L44.85 2.4Q44.7 2.4 44.42 2.05 44.15 1.7 43.92 1.18 43.7 0.65 43.5 0.1 43.3-0.45 43.3-0.85ZM68-1L68-1Q68.25-2.45 68.87-4.83 69.5-7.2 70.35-9.88 71.2-12.55 72.15-15.25 73.1-17.95 74-20.1L74-20.1Q74.65-21.65 75.15-22.53 75.65-23.4 76.25-24L76.25-24Q76.95-23.9 77.7-23.65 78.45-23.4 79.15-23.05 79.85-22.7 80.4-22.33 80.95-21.95 81.25-21.6L81.25-21.6Q79.9-20 78.87-17.95 77.85-15.9 76.8-12.7L76.8-12.7Q79.5-15.1 81.57-17.3 83.65-19.5 85.45-22.2L85.45-22.2Q85.75-22.45 86.5-22.45L86.5-22.45Q87.2-22.45 87.85-22.23 88.5-22 88.75-21.6L88.75-21.6Q87.85-19.2 87.85-16.85L87.85-16.85Q87.85-14.65 88.5-13.55L88.5-13.55Q88.45-13.25 87.82-12.4 87.2-11.55 86.45-10.8L86.45-10.8Q85.1-11.5 84.05-12.73 83-13.95 82.5-15.4L82.5-15.4Q80.15-13.75 78.5-12.18 76.85-10.6 75.67-8.68 74.5-6.75 73.67-4.25 72.85-1.75 72.1 1.7L72.1 1.7Q71.65 1.65 71.02 1.38 70.4 1.1 69.77 0.7 69.15 0.3 68.65-0.15 68.15-0.6 68-1ZM102.94-1.1L102.94-1.1Q101.99-1.9 101.67-3.1 101.34-4.3 101.34-5.15L101.34-5.15Q101.34-6.2 101.59-6.95L101.59-6.95Q101.39-6.95 100.69-6.15 99.99-5.35 99.17-4.25 98.34-3.15 97.54-2.1 96.74-1.05 96.34-0.55L96.34-0.55Q95.69 0.15 95.12 0.55 94.54 0.95 94.19 1L94.19 1Q93.39 0.95 92.52 0.68 91.64 0.4 90.87-0.1 90.09-0.6 89.52-1.3 88.94-2 88.74-2.9L88.74-2.9Q88.74-4.3 88.82-5.2 88.89-6.1 89.14-7.15L89.14-7.15Q89.59-9.05 90.47-11.45 91.34-13.85 92.49-16.18 93.64-18.5 95.07-20.53 96.49-22.55 98.09-23.7L98.09-23.7Q98.54-23.7 99.14-23.63 99.74-23.55 100.37-23.35 100.99-23.15 101.57-22.88 102.14-22.6 102.54-22.15L102.54-22.15Q102.09-21.65 100.27-18.8 98.44-15.95 96.19-10.6L96.19-10.6Q95.94-10.05 95.59-9 95.24-7.95 94.89-6.8 94.54-5.65 94.32-4.55 94.09-3.45 94.09-2.8L94.09-2.8Q94.09-2.4 94.22-2.2 94.34-2 94.44-1.9L94.44-1.9Q95.19-2.2 96.34-3.55 97.49-4.9 99.54-7.7L99.54-7.7Q100.04-8.4 100.72-9.3 101.39-10.2 102.09-11.23 102.79-12.25 103.42-13.35 104.04-14.45 104.44-15.55L104.44-15.55Q104.64-16.15 104.97-16.98 105.29-17.8 105.77-18.7 106.24-19.6 106.87-20.53 107.49-21.45 108.34-22.25L108.34-22.25Q108.99-22.25 109.74-22.1 110.49-21.95 111.17-21.73 111.84-21.5 112.34-21.23 112.84-20.95 113.09-20.65L113.09-20.65Q112.19-18.45 111.09-16.3 109.99-14.15 109.04-12.08 108.09-10 107.44-7.95 106.79-5.9 106.79-3.95L106.79-3.95Q106.79-2.9 106.97-2.13 107.14-1.35 107.34-0.83 107.54-0.3 107.72 0.05 107.89 0.4 107.89 0.65L107.89 0.65Q107.89 0.7 107.79 0.8L107.79 0.8Q107.74 0.85 107.69 0.85L107.69 0.85Q107.34 0.85 106.79 0.7 106.24 0.55 105.57 0.28 104.89 0 104.22-0.35 103.54-0.7 102.94-1.1ZM116.54-17.7L116.54-17.7Q116.54-18.6 116.67-19.4 116.79-20.2 117.19-20.78 117.59-21.35 118.29-21.68 118.99-22 120.14-22L120.14-22Q120.84-22 121.72-21.85 122.59-21.7 122.99-21.3L122.99-21.3Q122.79-20.45 122.67-19.8 122.54-19.15 122.47-18.38 122.39-17.6 122.34-16.53 122.29-15.45 122.24-13.75L122.24-13.75Q122.14-10.35 121.92-7.68 121.69-5 120.89-2.35L120.89-2.35Q120.89-2.15 121.04-2.15L121.04-2.15Q121.79-2.7 122.74-3.75 123.69-4.8 124.74-6.13 125.79-7.45 126.84-8.95 127.89-10.45 128.79-11.9L128.79-11.9Q129.99-14 131.44-17.15 132.89-20.3 133.84-23.9L133.84-23.9Q134.14-23.9 134.62-23.78 135.09-23.65 135.57-23.48 136.04-23.3 136.42-23.1 136.79-22.9 136.94-22.75L136.94-22.75Q136.84-20.6 135.92-18.35 134.99-16.1 133.69-14 132.39-11.9 130.94-10.05 129.49-8.2 128.29-6.85L128.29-6.85Q125.89-4.05 123.47-1.85 121.04 0.35 117.69 2.4L117.69 2.4Q116.39 1.9 115.64 1.07 114.89 0.25 114.89-0.65L114.89-0.65Q114.89-1.25 115.17-2.02 115.44-2.8 115.79-4.03 116.14-5.25 116.42-7.1 116.69-8.95 116.69-11.8L116.69-11.8Q116.69-13.45 116.62-15.13 116.54-16.8 116.54-17.7Z"
                                        opacity="1"
                                        transform="matrix(1,0,0,1,0,0)"
                                        fill="#6e57e0"
                                        class="wordmark-text-0"
                                        data-fill-palette-color="primary"
                                        id="text-0"
                                      ></path>
                                    </svg>
                                  </g>
                                </svg>
                              </g>
                            </svg>
                          </g>
                        </svg>
                      </g>
                    </svg>
                  </g>
                  <defs></defs>
                </svg>
                <rect
                  width="395.52"
                  height="138.73059233449476"
                  fill="none"
                  stroke="none"
                  visibility="hidden"
                ></rect>
              </g>
            </svg>
          </g>
        </svg>